<svg width="290" height="75" viewBox="0 0 290 75" fill="none" xmlns="http://www.w3.org/2000/svg">
<g clip-path="url(#clip0_238_141)">
<path d="M132.837 15.6612L130.525 0L72.1358 7.21406L74.4358 22.8736L132.827 15.6612" fill="#80B14F"/>
<path d="M138.269 40.331V40.1398C138.269 20.6023 154.7 5.27954 176.888 5.27954C191.853 5.27954 201.482 11.0273 207.97 19.2604L192.689 30.0843C188.503 25.2942 183.68 22.23 176.677 22.23C166.421 22.23 159.201 30.1807 159.201 39.9451V40.1363C159.201 50.1936 166.423 58.0444 176.677 58.0444C184.317 58.0444 188.815 54.789 193.212 49.9059L208.49 59.865C201.59 68.5805 192.269 74.9965 176.046 74.9965C171.054 75.0687 166.097 74.2205 161.471 72.5025C156.845 70.7845 152.644 68.232 149.118 64.9969C145.593 61.7618 142.815 57.9104 140.95 53.6722C139.086 49.4339 138.172 44.8955 138.265 40.3275" fill="white"/>
<path d="M94.5379 57.8566V47.2257H129.701V32.6677H74.4454V73.6669H133.889V57.8636H94.5379" fill="white"/>
<path d="M239.306 6.22656H258.856L290.004 73.6599H268.261L262.931 61.7048H234.71L229.483 73.6599H208.16L239.306 6.22656ZM257.076 47.2608L248.922 28.2267L240.665 47.2608H257.076Z" fill="white"/>
<path d="M49.9197 50.2898C54.4743 48.7382 58.3804 45.915 61.085 42.2199C63.7897 38.5247 65.156 34.1448 64.9905 29.6999V29.5087C65.1481 26.6374 64.6526 23.7674 63.5355 21.0804C62.4184 18.3933 60.704 15.9477 58.5006 13.8984C53.5844 9.29945 45.8372 6.61938 34.6419 6.61938H0V73.6668H20.3014V53.354H29.1986L43.957 73.6581H67.3998L49.9235 50.2898M44.5875 30.8488C44.5875 35.7319 40.6104 38.7961 33.7008 38.7961H20.3052V22.7068H33.5992C40.4015 22.7068 44.5875 25.3887 44.5875 30.6576V30.8488Z" fill="white"/>
</g>
<defs>
<clipPath id="clip0_238_141">
<rect width="290" height="75" fill="white"/>
</clipPath>
</defs>
</svg>
