<svg width="290" height="75" viewBox="0 0 290 75" fill="none" xmlns="http://www.w3.org/2000/svg">
<path d="M290 33.7461H0.14505V74.9998H290V33.7461Z" fill="#929BA4"/>
<path d="M260.757 0.157471H31.0801V31.9088H260.757V0.157471Z" fill="black"/>
<path d="M290 0.157471H260.748V31.9193H290V0.157471Z" fill="#C9002C"/>
<path d="M67.8269 9.30298H69.906V23.0157H77.4391V25.0212H67.8269V9.30298Z" fill="white"/>
<path d="M81.8873 9.30298H90.9967V11.3084H83.9664V15.8758H89.2657V17.9023H83.9664V22.9947H91.5189V25.0212H81.8873V9.30298Z" fill="white"/>
<path d="M114.669 22.27C114.515 22.5535 114.263 22.879 113.934 23.236C113.606 23.593 113.2 23.9395 112.716 24.265C112.242 24.5905 111.691 24.853 111.062 25.0735C110.443 25.294 109.757 25.399 109.003 25.399C107.929 25.399 106.953 25.1995 106.073 24.79C105.193 24.3805 104.429 23.8135 103.79 23.0785C103.152 22.3435 102.659 21.4825 102.301 20.4851C101.943 19.4876 101.769 18.3956 101.769 17.2196C101.769 16.0752 101.943 14.9937 102.301 13.9962C102.659 12.9882 103.152 12.1062 103.79 11.3608C104.429 10.6048 105.193 10.0168 106.082 9.58629C106.972 9.1558 107.958 8.9353 109.041 8.9353C109.805 8.9353 110.492 9.0403 111.101 9.23979C111.71 9.43929 112.242 9.70178 112.697 10.0063C113.151 10.3108 113.538 10.6468 113.867 11.0038C114.196 11.3608 114.457 11.7072 114.66 12.0432L113.18 13.4082C113.006 13.1457 112.803 12.8622 112.561 12.5682C112.32 12.2742 112.039 12.0117 111.701 11.7807C111.372 11.5497 110.985 11.3503 110.55 11.1928C110.115 11.0353 109.622 10.9618 109.051 10.9618C108.258 10.9618 107.542 11.1298 106.914 11.4552C106.285 11.7807 105.753 12.2322 105.309 12.7992C104.864 13.3662 104.535 14.0277 104.303 14.7732C104.071 15.5292 103.955 16.3272 103.955 17.1776C103.955 18.0281 104.071 18.8261 104.313 19.5716C104.554 20.3171 104.883 20.9681 105.318 21.514C105.753 22.06 106.276 22.4905 106.904 22.8055C107.523 23.1205 108.219 23.278 108.983 23.278C109.631 23.278 110.192 23.1835 110.666 23.005C111.14 22.8265 111.536 22.606 111.855 22.354C112.184 22.102 112.445 21.85 112.658 21.5875C112.871 21.3251 113.045 21.1151 113.19 20.9366L114.669 22.27Z" fill="white"/>
<path d="M125.655 25.42C124.61 25.42 123.643 25.1995 122.744 24.769C121.845 24.3385 121.061 23.7505 120.404 23.005C119.737 22.2595 119.214 21.3881 118.837 20.3801C118.46 19.3721 118.276 18.3011 118.276 17.1566C118.276 16.0122 118.46 14.9412 118.837 13.9437C119.214 12.9462 119.727 12.0747 120.384 11.3293C121.042 10.5838 121.825 9.99578 122.725 9.56529C123.624 9.1348 124.601 8.91431 125.645 8.91431C126.689 8.91431 127.656 9.1348 128.565 9.56529C129.465 9.99578 130.258 10.5838 130.915 11.3293C131.583 12.0747 132.105 12.9462 132.482 13.9437C132.859 14.9412 133.043 16.0122 133.043 17.1566C133.043 18.3011 132.859 19.3826 132.482 20.3801C132.105 21.3881 131.583 22.2595 130.915 23.005C130.248 23.7505 129.465 24.3385 128.565 24.769C127.666 25.21 126.689 25.42 125.655 25.42ZM125.655 23.299C126.448 23.299 127.173 23.131 127.811 22.8055C128.459 22.48 129.001 22.0285 129.465 21.4616C129.919 20.8946 130.267 20.2436 130.519 19.4981C130.761 18.7526 130.886 17.9651 130.886 17.1251C130.886 16.2747 130.761 15.4767 130.519 14.7312C130.277 13.9857 129.919 13.3347 129.465 12.7677C129.01 12.2007 128.459 11.7597 127.811 11.4343C127.163 11.1088 126.448 10.9513 125.655 10.9513C124.862 10.9513 124.146 11.1088 123.508 11.4343C122.87 11.7597 122.328 12.2007 121.874 12.7677C121.419 13.3347 121.071 13.9857 120.82 14.7312C120.578 15.4767 120.452 16.2747 120.452 17.1251C120.452 17.9546 120.578 18.7421 120.82 19.4981C121.061 20.2436 121.419 20.8946 121.874 21.4616C122.328 22.0285 122.879 22.48 123.508 22.8055C124.137 23.1415 124.852 23.299 125.655 23.299Z" fill="white"/>
<path d="M138.429 9.30298H140.421L144.831 17.4823L149.24 9.30298H151.194L151.871 25.0212H149.83L149.356 12.9569L145.276 20.3803H144.231L140.218 13.0514L139.715 25.0212H137.762L138.429 9.30298Z" fill="white"/>
<path d="M157.18 9.30298H161.754C162.74 9.30298 163.552 9.44998 164.19 9.75447C164.838 10.0485 165.351 10.4265 165.728 10.8884C166.115 11.3399 166.376 11.8544 166.531 12.4214C166.685 12.9884 166.763 13.5344 166.763 14.0699C166.763 14.8574 166.637 15.5504 166.395 16.1383C166.154 16.7368 165.805 17.2303 165.38 17.6293C164.954 18.0283 164.432 18.3328 163.833 18.5323C163.233 18.7318 162.576 18.8368 161.87 18.8368H159.249V25.0107H157.189L157.18 9.30298ZM161.85 16.9153C162.75 16.9153 163.436 16.6633 163.92 16.1698C164.403 15.6764 164.645 14.9834 164.645 14.1119C164.645 13.2194 164.394 12.5159 163.9 12.0014C163.407 11.4869 162.721 11.2349 161.85 11.2349H159.249V16.9153H161.85Z" fill="white"/>
<path d="M175.253 11.2872H170.07V9.31323H182.506V11.2872H177.342V25.0209H175.263V11.2872H175.253Z" fill="white"/>
<path d="M192.118 25.42C191.074 25.42 190.107 25.1995 189.207 24.769C188.308 24.3385 187.534 23.7505 186.867 23.005C186.2 22.2595 185.678 21.3881 185.31 20.3801C184.933 19.3721 184.749 18.3011 184.749 17.1566C184.749 16.0122 184.943 14.9412 185.31 13.9437C185.687 12.9462 186.2 12.0747 186.857 11.3293C187.515 10.5838 188.298 9.99578 189.198 9.56529C190.097 9.1348 191.074 8.91431 192.118 8.91431C193.162 8.91431 194.129 9.1348 195.038 9.56529C195.938 9.99578 196.731 10.5838 197.398 11.3293C198.065 12.0747 198.587 12.9462 198.955 13.9437C199.332 14.9412 199.516 16.0122 199.516 17.1566C199.516 18.3011 199.322 19.3826 198.955 20.3801C198.578 21.3881 198.056 22.2595 197.398 23.005C196.731 23.7505 195.947 24.3385 195.038 24.769C194.129 25.21 193.162 25.42 192.118 25.42ZM192.118 23.299C192.911 23.299 193.636 23.131 194.275 22.8055C194.922 22.48 195.464 22.0285 195.928 21.4616C196.383 20.8946 196.731 20.2436 196.982 19.4981C197.224 18.7526 197.35 17.9651 197.35 17.1251C197.35 16.2747 197.224 15.4767 196.982 14.7312C196.74 13.9857 196.383 13.3347 195.928 12.7677C195.474 12.2007 194.922 11.7597 194.275 11.4343C193.627 11.1088 192.911 10.9513 192.118 10.9513C191.325 10.9513 190.61 11.1088 189.971 11.4343C189.333 11.7597 188.792 12.2007 188.337 12.7677C187.883 13.3347 187.534 13.9857 187.283 14.7312C187.041 15.4767 186.916 16.2747 186.916 17.1251C186.916 17.9546 187.041 18.7421 187.283 19.4981C187.525 20.2436 187.883 20.8946 188.337 21.4616C188.792 22.0285 189.343 22.48 189.971 22.8055C190.61 23.1415 191.325 23.299 192.118 23.299Z" fill="white"/>
<path d="M204.399 9.30298H206.478V25.0212H204.399V9.30298Z" fill="white"/>
<path d="M211.952 9.30298H216.574C217.502 9.30298 218.276 9.43948 218.914 9.71247C219.552 9.98546 220.065 10.3425 220.461 10.773C220.858 11.2034 221.148 11.6969 221.332 12.2429C221.516 12.7889 221.603 13.3454 221.603 13.9124C221.603 14.9204 221.39 15.8023 220.955 16.5793C220.52 17.3458 219.852 17.9233 218.934 18.3013L222.318 25.0212H219.978L216.874 18.5848H213.963V25.0212H211.942V9.30298H211.952ZM216.748 16.6843C217.657 16.6843 218.344 16.4428 218.798 15.9493C219.253 15.4664 219.485 14.8154 219.485 13.9964C219.485 13.1354 219.243 12.4634 218.75 11.9804C218.257 11.4974 217.58 11.2664 216.709 11.2664H213.973V16.6843H216.748Z" fill="white"/>
<path d="M13.8574 0H0V15.0462C3.12348 8.65183 7.96825 3.39143 13.8574 0Z" fill="#C9002C"/>
<path d="M0.154724 31.9088H6.39201H12.0684H15.7624C15.7624 23.7505 21.874 17.1251 29.3781 17.1251V13.1142V6.95083V0.178473C13.2675 0.167973 0.154724 14.4057 0.154724 31.9088Z" fill="#929BA4"/>
<path d="M19.8916 31.909H29.3878V21.5982C24.1465 21.5877 19.8916 26.2181 19.8916 31.909Z" fill="#C9002C"/>
<path d="M17.7062 60.3214L20.0367 57.5915C20.4525 58.0745 21.0037 58.5574 21.7 59.0194C22.3962 59.4919 23.2085 59.7229 24.1369 59.7229C24.5043 59.7229 24.8621 59.6494 25.2199 59.5024C25.568 59.3554 25.8678 59.1349 26.0999 58.8514C26.332 58.5679 26.448 58.2214 26.448 57.8225C26.448 57.182 26.1579 56.678 25.5874 56.3105C25.0072 55.943 24.0982 55.5965 22.8507 55.271C21.6323 54.9455 20.6266 54.3575 19.8239 53.528C19.0213 52.6986 18.6248 51.6171 18.6248 50.2941C18.6248 49.3176 18.8376 48.4356 19.2727 47.6272C19.7079 46.8187 20.3558 46.1677 21.2164 45.6742C22.0771 45.1807 23.1698 44.9287 24.4753 44.9287C25.5584 44.9287 26.477 45.0862 27.2216 45.3802C27.9663 45.6847 28.5561 46.0207 29.0106 46.3777C29.4555 46.7452 29.7746 47.0392 29.9486 47.2597L27.8599 49.7586C27.5118 49.4646 27.0476 49.1286 26.4674 48.7506C25.8872 48.3726 25.2102 48.1941 24.427 48.1941C23.9144 48.1941 23.4406 48.3516 22.9958 48.6771C22.5509 49.0026 22.3382 49.3806 22.3382 49.8321C22.3382 50.4201 22.6283 50.9031 23.1988 51.2601C23.7791 51.6276 24.5623 51.9321 25.5777 52.1736C26.361 52.3836 27.1153 52.6986 27.8405 53.108C28.5658 53.528 29.1654 54.1055 29.6295 54.851C30.0937 55.5965 30.3258 56.573 30.3258 57.77C30.3258 58.8094 30.055 59.7439 29.5135 60.5524C28.972 61.3609 28.237 62.0119 27.3087 62.4739C26.3803 62.9359 25.3456 63.1773 24.1949 63.1773C23.1408 63.1773 22.2028 63.0408 21.3905 62.7574C20.5782 62.4844 19.8626 62.1169 19.2534 61.6759C18.6248 61.2769 18.122 60.8044 17.7062 60.3214Z" fill="white"/>
<path d="M33.0044 62.7678V45.4011H43.9414V48.8346H36.6308V52.2155H42.3169V55.5439H36.6308V59.2923H44.4733V62.7573H33.0044V62.7678Z" fill="white"/>
<path d="M46.9199 62.7678V45.4011H50.5462V62.7678H46.9199Z" fill="white"/>
<path d="M61.928 56.384V53.213H68.088V60.7414C67.2563 61.5079 66.2893 62.1064 65.1772 62.5369C64.0651 62.9673 62.7983 63.1878 61.3768 63.1878C59.6362 63.1878 58.1373 62.7993 56.8898 62.0329C55.6424 61.2559 54.685 60.1954 54.0275 58.8304C53.3602 57.4655 53.0314 55.901 53.0314 54.1265C53.0314 52.8245 53.2345 51.6171 53.631 50.5041C54.0275 49.3911 54.598 48.4251 55.3329 47.5852C56.0679 46.7557 56.9479 46.1047 57.9632 45.6427C58.9786 45.1807 60.0907 44.9497 61.3091 44.9497C62.7597 44.9497 64.0458 45.2437 65.1482 45.8212C66.2506 46.3987 67.1596 47.2177 67.8559 48.2571L65.4093 50.7876C64.9161 50.1261 64.3552 49.5906 63.7267 49.1706C63.1078 48.7506 62.3438 48.5406 61.4445 48.5406C60.4678 48.5406 59.6362 48.7926 58.9399 49.2966C58.2437 49.8006 57.7118 50.4726 57.3443 51.3126C56.9769 52.1526 56.7931 53.087 56.7931 54.116C56.7931 55.229 57.0059 56.195 57.4314 57.0245C57.8569 57.8539 58.4274 58.4839 59.143 58.9354C59.8586 59.3869 60.6806 59.6179 61.5896 59.6179C62.2278 59.6179 62.808 59.5339 63.3399 59.3659C63.8717 59.1979 64.3359 58.9354 64.7517 58.5679V56.384H61.928Z" fill="white"/>
<path d="M70.9987 62.7678V45.4011H74.451L81.3845 56.6779V45.4011H84.9625V62.7678H81.6746L74.5767 51.281V62.7678H70.9987Z" fill="white"/>
<path d="M88.0763 62.7678V45.4011H99.0133V48.8346H91.7026V52.2155H97.3887V55.5439H91.7026V59.2923H99.5452V62.7573H88.0763V62.7678Z" fill="white"/>
<path d="M101.866 56.1844V45.4011H105.512V55.6909C105.512 56.8249 105.744 57.7279 106.198 58.4209C106.653 59.1138 107.446 59.4603 108.587 59.4603C109.718 59.4603 110.511 59.1138 110.966 58.4209C111.411 57.7279 111.633 56.8144 111.633 55.6909V45.4011H115.298V56.1844C115.298 57.5704 115.017 58.7989 114.466 59.8593C113.915 60.9198 113.141 61.7493 112.136 62.3478C111.14 62.9463 109.95 63.2508 108.577 63.2508C107.214 63.2508 106.034 62.9568 105.028 62.3688C104.022 61.7808 103.239 60.9513 102.688 59.8803C102.137 58.7989 101.866 57.5704 101.866 56.1844Z" fill="white"/>
<path d="M118.296 62.7678V45.4011H124.243C125.49 45.4011 126.525 45.6531 127.357 46.1466C128.188 46.6401 128.807 47.3016 129.223 48.1206C129.639 48.95 129.852 49.853 129.852 50.84C129.852 51.953 129.62 52.9295 129.165 53.78C128.711 54.6304 128.063 55.3024 127.231 55.8064L130.78 62.7573H126.796L123.817 56.3734H121.806V62.7573H118.296V62.7678ZM121.816 53.234H124.049C124.717 53.234 125.249 53.0135 125.635 52.583C126.022 52.1525 126.216 51.6065 126.216 50.945C126.216 50.231 126.022 49.6745 125.626 49.2545C125.229 48.8346 124.707 48.6351 124.059 48.6351H121.825V53.234H121.816Z" fill="white"/>
<path d="M132.849 62.7678V45.4011H136.476V62.7678H132.849Z" fill="white"/>
<path d="M139.589 62.7678V45.4011H150.526V48.8346H143.216V52.2155H148.902V55.5439H143.216V59.2923H151.058V62.7573H139.589V62.7678Z" fill="white"/>
<path d="M166.115 56.384V53.213H172.275V60.7414C171.443 61.5079 170.476 62.1064 169.364 62.5369C168.252 62.9673 166.985 63.1878 165.564 63.1878C163.823 63.1878 162.324 62.7993 161.077 62.0329C159.829 61.2559 158.872 60.1954 158.214 58.8304C157.547 57.4655 157.218 55.901 157.218 54.1265C157.218 52.8245 157.421 51.6171 157.818 50.5041C158.214 49.3911 158.785 48.4251 159.52 47.5852C160.255 46.7557 161.135 46.1047 162.15 45.6427C163.165 45.1807 164.278 44.9497 165.496 44.9497C166.947 44.9497 168.233 45.2437 169.335 45.8212C170.438 46.3987 171.346 47.2177 172.043 48.2571L169.596 50.7876C169.103 50.1261 168.542 49.5906 167.914 49.1706C167.295 48.7506 166.531 48.5406 165.631 48.5406C164.655 48.5406 163.823 48.7926 163.127 49.2966C162.431 49.8006 161.899 50.4726 161.531 51.3126C161.164 52.1526 160.98 53.087 160.98 54.116C160.98 55.229 161.193 56.195 161.618 57.0245C162.044 57.8539 162.614 58.4839 163.33 58.9354C164.045 59.3869 164.867 59.6179 165.776 59.6179C166.415 59.6179 166.995 59.5339 167.527 59.3659C168.059 59.1979 168.523 58.9354 168.939 58.5679V56.384H166.115Z" fill="white"/>
<path d="M173.793 62.7678L179.769 45.4011H183.773L189.623 62.7678H185.668L184.44 58.7884H178.802L177.574 62.7678H173.793ZM179.643 55.7329H183.579L181.636 49.1705L179.643 55.7329Z" fill="white"/>
<path d="M190.513 56.1844V45.4011H194.159V55.6909C194.159 56.8249 194.391 57.7279 194.845 58.4209C195.3 59.1138 196.093 59.4603 197.234 59.4603C198.365 59.4603 199.158 59.1138 199.613 58.4209C200.057 57.7279 200.28 56.8144 200.28 55.6909V45.4011H203.945V56.1844C203.945 57.5704 203.664 58.7989 203.113 59.8593C202.562 60.9198 201.788 61.7493 200.783 62.3478C199.787 62.9463 198.597 63.2508 197.224 63.2508C195.86 63.2508 194.681 62.9568 193.675 62.3688C192.669 61.7808 191.886 60.9513 191.335 59.8803C190.784 58.7989 190.513 57.5704 190.513 56.1844Z" fill="white"/>
<path d="M211.072 62.7678V48.866H205.888V45.4011H219.872V48.866H214.717V62.7678H211.072Z" fill="white"/>
<path d="M221.931 62.7678V45.4011H225.558V52.0685H232.491V45.4011H236.118V62.7678H232.491V55.6279H225.558V62.7678H221.931Z" fill="white"/>
<path d="M239.222 62.7678V45.4011H242.848V62.7678H239.222Z" fill="white"/>
<path d="M245.962 62.7678V45.4011H256.899V48.8346H249.588V52.2155H255.274V55.5439H249.588V59.2923H257.431V62.7573H245.962V62.7678Z" fill="white"/>
<path d="M259.877 62.7678V45.4011H265.824C267.072 45.4011 268.107 45.6531 268.938 46.1466C269.77 46.6401 270.389 47.3016 270.805 48.1206C271.22 48.95 271.433 49.853 271.433 50.84C271.433 51.953 271.201 52.9295 270.747 53.78C270.292 54.6304 269.644 55.3024 268.813 55.8064L272.362 62.7573H268.377L265.399 56.3734H263.388V62.7573H259.877V62.7678ZM263.397 53.234H265.631C266.298 53.234 266.83 53.0135 267.217 52.583C267.604 52.1525 267.797 51.6065 267.797 50.945C267.797 50.231 267.604 49.6745 267.207 49.2545C266.811 48.8346 266.289 48.6351 265.641 48.6351H263.407V53.234H263.397Z" fill="white"/>
</svg>
